<svg id="identity" xmlns="http://www.w3.org/2000/svg" viewBox="0 0 424.8 72.14"><defs><style>.cls-1{fill:#fff;}.cls-2{fill:#ffcb05;}</style></defs><title>coas-reverse</title><path class="cls-1" d="M424.22,9.77a25.28,25.28,0,0,1-3,.18c-2,0-3-.18-3.29-.18s-.5.21-.5.57.14.69.47.69l.76,0c1.19,0,1.51.25,1.51.87a10.11,10.11,0,0,1-.76,2.67c-.94,2.34-2.05,5.08-3,7.6-.14.36-.25.47-.46.47s-.29-.25-.51-.69c-1.19-2.55-2.31-5.08-3.24-7.35a10.86,10.86,0,0,1-.87-2.56c0-.76.36-1,1.44-1,.22,0,.72,0,.83,0s.54-.11.54-.65-.21-.61-.54-.61-1.4.18-3.42.18c-.08,0-4.4.07-5.77.07-.43,0-.54-.18-.54-.54,0-1.19.07-2.85.07-3.18s-.14-.68-.54-.68-.61.33-.69.68c-.53,2.56-1.22,3.61-3.53,4-.25,0-.47.18-.47.65s.25.68.55.68,1-.07,1.8-.07c.46,0,.61.15.61.54-.07,4.94-.18,8.51-.18,9.84a6.55,6.55,0,0,0,.57,3.18,2.92,2.92,0,0,0,2.85,1.33,5.54,5.54,0,0,0,4-1.66.75.75,0,0,0,.25-.5.64.64,0,0,0-.61-.65.67.67,0,0,0-.47.25,2.58,2.58,0,0,1-2.13,1,2,2,0,0,1-1.84-.94,6.93,6.93,0,0,1-.36-2.67c0-.79,0-4.29.07-9.16,0-.36.15-.54.58-.54a20.29,20.29,0,0,1,3.72.07c.38.21.57,1,1,1.77,1.37,3,4,8.65,5.3,11.64a4,4,0,0,1,.25,1,7.94,7.94,0,0,1-.65,1.81c-1.05,2.34-1.54,3.76-3.6,3.78-.57,0-.61-.25-1.22-.25A1.13,1.13,0,0,0,408,32.55c0,.75.39,1.37,1.91,1.37a4.37,4.37,0,0,0,3.43-1.84c1.08-1.37,1.68-2.74,3.34-6.63,1.48-3.54,3.1-7.5,4.94-12.08a6.38,6.38,0,0,1,1-1.84,1.73,1.73,0,0,1,1.12-.54l.69,0c.25,0,.4-.25.4-.62,0-.53-.26-.64-.58-.64M399.29,24.84c-.11,0-.32,0-.58,0-.93,0-1.4-.18-1.69-.57a6.62,6.62,0,0,1-.4-3.07V16.18c0-1.69,0-3.57.11-5.48,0-.43,0-.93,0-1.08a.51.51,0,0,0-.47-.57,1.12,1.12,0,0,0-.68.25A14.92,14.92,0,0,1,392,11.14a.45.45,0,0,0-.29.46c0,.37.11.47.4.55.72.18,1.62.43,1.94,1.08a6.86,6.86,0,0,1,.47,3.31V21.3a7.58,7.58,0,0,1-.39,2.92c-.18.4-.69.65-1.45.65l-.65,0a.54.54,0,0,0-.5.61c0,.39.11.68.47.68s1.33-.18,3.53-.18,3.43.18,3.75.18.54-.21.54-.65-.18-.64-.54-.64M395.22,6.67a1.63,1.63,0,0,0,1.69-1.73,1.61,1.61,0,0,0-1.73-1.73,1.73,1.73,0,1,0,0,3.46m-9.63,10.09c-3-1.33-3.82-2.13-3.82-3.71,0-1.16,1.12-2.46,3.46-2.46a3,3,0,0,1,2.53.94,4.45,4.45,0,0,1,.68,2.16c.07.36.25.51.69.51s.72-.15.72-.58-.18-1.41-.26-3a.8.8,0,0,0-.61-.82,9.75,9.75,0,0,0-3.21-.44c-3.93,0-5.95,1.91-5.95,4.58,0,1.81.87,3.39,4.08,4.8,3.78,1.65,4.36,2.52,4.36,4s-1.48,2.53-3.64,2.53a3.77,3.77,0,0,1-3.17-1.19,5.27,5.27,0,0,1-1-2.38.55.55,0,0,0-.62-.54c-.61,0-.79.25-.79.68s.11,1.26.33,2.85a1.15,1.15,0,0,0,.46.87,8.25,8.25,0,0,0,4.3,1c4.39,0,6.05-2.27,6.05-4.8,0-1.66-.68-3.31-4.58-5M377,9.3a6.14,6.14,0,0,0-4.44,2.63.36.36,0,0,1-.32.14c-.11,0-.22-.07-.22-.36,0-.76,0-1.94-.07-2.23a.45.45,0,0,0-.47-.43,1.1,1.1,0,0,0-.65.25,14.35,14.35,0,0,1-3.28,1.84.51.51,0,0,0-.29.5c0,.33.15.43.29.47,1,.25,1.77.5,2.09,1.15a7.56,7.56,0,0,1,.43,3.36v4.79a6.93,6.93,0,0,1-.39,2.81,1.57,1.57,0,0,1-1.41.65l-.72,0c-.25,0-.46.25-.46.64s.17.65.46.65S369,26,371,26s3.86.18,4.22.18.57-.25.57-.65-.14-.64-.57-.64l-.76,0c-1,0-1.51-.18-1.84-.57s-.5-1.27-.5-3V16.62a6.63,6.63,0,0,1,.65-3.21,3.67,3.67,0,0,1,2.52-1.91,1.49,1.49,0,0,1,1.3.79,1.07,1.07,0,0,0,1.08.58,1.58,1.58,0,0,0,1.51-1.73c0-1.09-.86-1.84-2.23-1.84m-22.17,4.32a4.66,4.66,0,0,1,4.32-3c2.74,0,4.08,1.34,4.08,3.57,0,.58-.36.91-1,1-1.08.15-3.89.18-7.32.18-.36,0-.47-.18-.47-.36a4.19,4.19,0,0,1,.37-1.37m10.59,7.29c-.46,0-.61.28-.68.75a3.59,3.59,0,0,1-.25.87c-.54,1.19-2.06,2.31-4.44,2.31-3.42,0-6-2.67-6-7,0-.9.18-1.22.58-1.22,3.35,0,8.18,0,10.09-.18.87-.07,1.15-.51,1.15-1.15,0-3.1-1.87-5.92-6.34-5.92-4.65,0-7.79,3.64-7.79,9.09,0,4.39,2.64,8.15,7.5,8.15,3.64,0,5.55-1.81,6.31-3.18a4.39,4.39,0,0,0,.58-1.73c0-.54-.26-.75-.73-.75m-13-9.88c.26,0,.47-.22.47-.62s-.25-.64-.54-.64a24.85,24.85,0,0,1-3,.18c-2.05,0-2.85-.18-3.25-.18s-.5.21-.5.64.14.62.47.62l.76,0c1.22,0,1.47.29,1.47.9a12.39,12.39,0,0,1-.93,2.85c-.94,2.35-2,4.87-3.29,7.43-.11.21-.21.28-.32.28s-.21-.1-.32-.32c-1.19-2.52-2.38-5.26-3.28-7.46a10.33,10.33,0,0,1-.83-2.78c0-.72.57-.9,1.58-.9.22,0,.69,0,.8,0s.47-.15.47-.58-.22-.68-.51-.68-1.44.18-3.46.18-3.25-.18-3.57-.18-.54.21-.54.64.14.62.43.62.4,0,.54,0a1.26,1.26,0,0,1,1.08.51,9,9,0,0,1,1.09,1.91c2.23,5.3,3.38,7.89,4.72,11,.22.54.39,1,.72,1.8a.63.63,0,0,0,.65.4.67.67,0,0,0,.64-.4c.3-.65.55-1.33.8-1.87,2-4.62,2.85-6.32,4.9-10.93a9.88,9.88,0,0,1,1-1.84,1.69,1.69,0,0,1,1.23-.54c.14,0,.4,0,.5,0M335,24.84c-.1,0-.32,0-.57,0-.94,0-1.41-.18-1.7-.57a6.62,6.62,0,0,1-.4-3.07V16.18c0-1.69,0-3.57.11-5.48,0-.43,0-.93,0-1.08a.51.51,0,0,0-.47-.57,1.15,1.15,0,0,0-.68.25,14.74,14.74,0,0,1-3.61,1.84.45.45,0,0,0-.29.46c0,.37.11.47.4.55.72.18,1.62.43,1.95,1.08a7,7,0,0,1,.47,3.31V21.3a7.53,7.53,0,0,1-.4,2.92c-.18.4-.68.65-1.44.65l-.65,0a.55.55,0,0,0-.51.61c0,.39.11.68.47.68S329,26,331.23,26s3.43.18,3.75.18.54-.21.54-.65-.17-.64-.54-.64M330.91,6.67a1.63,1.63,0,0,0,1.69-1.73,1.61,1.61,0,0,0-1.73-1.73,1.73,1.73,0,1,0,0,3.46m-5.65,18.17-.7,0c-1,0-1.18-.14-1.44-.57s-.28-.94-.28-3.86V16.15c0-3.1-.33-4.37-1-5.37a3.79,3.79,0,0,0-3.46-1.52,9.11,9.11,0,0,0-5.95,2.56,1.35,1.35,0,0,1-.43.25c-.14,0-.32-.07-.32-.36,0-.79,0-1.91-.08-2.23a.45.45,0,0,0-.47-.43,1,1,0,0,0-.64.25,15.23,15.23,0,0,1-3.29,1.84.51.51,0,0,0-.28.5c0,.33.14.43.28.47,1,.25,1.77.5,2.1,1.15a7.71,7.71,0,0,1,.43,3.36v4.65a8.37,8.37,0,0,1-.4,2.95,1.45,1.45,0,0,1-1.4.65l-.73,0c-.28,0-.46.28-.46.64s.14.65.43.65,1.4-.18,3.46-.18,3.46.18,3.82.18a.54.54,0,0,0,.58-.61c0-.4-.15-.68-.58-.68l-.72,0c-.87,0-1.23-.18-1.51-.57s-.4-1.34-.4-3.11V16.62c0-1.92.25-2.74.68-3.28a6.47,6.47,0,0,1,4.36-2.13,3.37,3.37,0,0,1,3.29,1.73c.4.86.61,2.56.61,6.13,0,2.74,0,4.32-.36,5.12-.14.43-.5.68-1.34.68l-.75,0a.58.58,0,0,0-.51.64c0,.4.15.65.51.65s1.33-.18,3.35-.18,3.39.18,3.68.18.54-.25.54-.61-.21-.68-.57-.68M307.59,3.46l.76,0c.46,0,.57-.25.57-.68s-.07-.65-.65-.65c-.32,0-2.09.21-3.56.21s-3.58-.21-4.08-.21-.5.29-.5.72.18.61.39.61l.83,0a2.35,2.35,0,0,1,1.91.68c.29.47.36,1.26.44,3.14,0,1.26.07,5.59.07,7.86,0,5.58-.69,9.7-7.72,9.7-4.9,0-7-2.42-7.14-8-.07-2.74-.07-6.71-.07-9.52,0-2.31.22-2.89.54-3.32a2.52,2.52,0,0,1,2-.57l.62,0c.29,0,.47-.29.47-.68s-.22-.65-.51-.65-1.91.21-4.15.21-3.85-.21-4.21-.21-.58.29-.58.72.11.61.44.61l.72,0a2,2,0,0,1,1.8.68c.29.47.43,1.26.43,3.14,0,5,0,7.93,0,10.2,0,5.84,2.71,9.09,9.56,9.09s9.48-3.54,9.48-9.41c0-2.06,0-8.37,0-9.85,0-2.12.25-2.85.58-3.21a2.19,2.19,0,0,1,1.66-.64M279.35,24.83c-.1,0-.5,0-.68,0-1,0-1.19-.14-1.44-.58-.18-.29-.29-.94-.29-3.85v-4.3c0-3.1-.33-4.36-1.05-5.37a3.79,3.79,0,0,0-3.46-1.51,9.06,9.06,0,0,0-5.95,2.56,1.35,1.35,0,0,1-.43.25c-.14,0-.32-.07-.32-.36,0-.79,0-1.91-.08-2.23a.46.46,0,0,0-.46-.44,1.12,1.12,0,0,0-.66.26,15,15,0,0,1-3.27,1.83.53.53,0,0,0-.29.51c0,.32.14.43.29.47,1,.25,1.76.5,2.09,1.15a7.53,7.53,0,0,1,.43,3.35v4.65a8.44,8.44,0,0,1-.4,3,1.45,1.45,0,0,1-1.4.65c-.22,0-.55,0-.72,0s-.47.29-.47.65.14.65.43.65,1.4-.18,3.46-.18,3.46.18,3.82.18a.54.54,0,0,0,.58-.61c0-.4-.14-.69-.58-.69-.18,0-.54,0-.72,0-.87,0-1.22-.18-1.51-.58s-.4-1.33-.4-3.1V16.61c0-1.91.25-2.74.69-3.28a6.47,6.47,0,0,1,4.36-2.12,3.37,3.37,0,0,1,3.28,1.73c.39.86.61,2.55.61,6.12,0,2.75,0,4.33-.36,5.13-.14.43-.5.68-1.33.68l-.76,0a.59.59,0,0,0-.51.65c0,.4.15.65.51.65s1.33-.18,3.36-.18,3.38.18,3.67.18.54-.25.54-.61-.21-.69-.58-.69m-25.87-1.29a5.37,5.37,0,0,1-3.17,1.29c-2.27,0-3.32-1.4-3.32-2.7a2.65,2.65,0,0,1,1.91-2.42,31,31,0,0,1,3.72-.93,5.5,5.5,0,0,1,1.08-.15.5.5,0,0,1,.54.51c0,.43,0,1,0,1.73,0,1.58-.29,2.2-.8,2.67m6.13.1a.61.61,0,0,0-.65.47,1.06,1.06,0,0,1-1,.72c-.87,0-1.59-.61-1.59-3.06s.11-5.91.11-7.72a6,6,0,0,0-.65-3.31,3.48,3.48,0,0,0-3.17-1.41,9.57,9.57,0,0,0-5.56,2.49,4.42,4.42,0,0,0-1.62,2.78,1.33,1.33,0,0,0,1.37,1.51,1.23,1.23,0,0,0,1.37-1.19c0-.54-.25-.76-.25-1.51,0-1.27,1.84-2.42,3.21-2.42a2.62,2.62,0,0,1,2.41,1c.51.76.69,1.63.69,4.4,0,.83-.36,1.05-1.41,1.23-3.93.72-5.48,1.19-6.63,1.84a3.3,3.3,0,0,0-1.59,2.95c0,2.27,1.95,4.18,4.72,4.18a5.54,5.54,0,0,0,4.26-1.73c.25-.25.36-.43.58-.43s.25.15.32.36a2.36,2.36,0,0,0,2.45,1.69,3.41,3.41,0,0,0,2.82-1.36,1.55,1.55,0,0,0,.39-.9.51.51,0,0,0-.54-.55M242.67,9.3a6.11,6.11,0,0,0-4.44,2.63.37.37,0,0,1-.32.14c-.11,0-.22-.07-.22-.36,0-.76,0-2-.07-2.23a.45.45,0,0,0-.47-.44,1.06,1.06,0,0,0-.64.26,14.27,14.27,0,0,1-3.29,1.83.54.54,0,0,0-.29.51c0,.32.15.43.29.47,1,.25,1.77.5,2.09,1.15a7.48,7.48,0,0,1,.44,3.35v4.8a6.88,6.88,0,0,1-.4,2.81,1.57,1.57,0,0,1-1.41.65c-.21,0-.54,0-.72,0s-.47.26-.47.65.18.65.47.65,1.48-.18,3.5-.18,3.85.18,4.22.18.57-.25.57-.65-.14-.65-.57-.65c-.22,0-.58,0-.76,0-1,0-1.51-.18-1.84-.58s-.5-1.26-.5-3V16.61a6.62,6.62,0,0,1,.65-3.2A3.66,3.66,0,0,1,241,11.49a1.5,1.5,0,0,1,1.3.8,1.07,1.07,0,0,0,1.08.57,1.57,1.57,0,0,0,1.51-1.73c0-1.08-.86-1.83-2.23-1.83M220.5,13.62a4.66,4.66,0,0,1,4.32-3c2.74,0,4.07,1.34,4.07,3.57,0,.58-.35.9-1,1-1.08.15-3.89.18-7.31.18-.37,0-.47-.18-.47-.36a4,4,0,0,1,.36-1.37m10.59,7.28c-.46,0-.61.29-.68.76a3.9,3.9,0,0,1-.25.86c-.54,1.2-2.06,2.31-4.44,2.31-3.42,0-6-2.67-6-7,0-.9.18-1.22.58-1.22,3.35,0,8.18,0,10.09-.18.86-.08,1.16-.51,1.16-1.16,0-3.1-1.88-5.91-6.35-5.91-4.65,0-7.79,3.64-7.79,9.09,0,4.39,2.63,8.14,7.5,8.14,3.64,0,5.55-1.8,6.31-3.17a4.39,4.39,0,0,0,.58-1.73c0-.54-.25-.76-.73-.76m-13.55,3.93-.76,0c-.93,0-1.19-.14-1.44-.58-.18-.29-.28-.94-.28-3.85v-4.3c0-3.1-.29-4.36-1-5.37a3.79,3.79,0,0,0-3.46-1.51,8.93,8.93,0,0,0-6,2.52.74.74,0,0,1-.39.18c-.15,0-.26-.11-.26-.36V7.93c0-5.12.11-7,.11-7.53a.37.37,0,0,0-.36-.4,1,1,0,0,0-.65.25,14.39,14.39,0,0,1-3.53,1.8.46.46,0,0,0-.25.47c0,.25.1.43.21.47.29.11.65.14.83.22a1.9,1.9,0,0,1,1.19.9c.29.58.36,1.91.36,5.19v12a8.76,8.76,0,0,1-.39,3c-.18.43-.72.65-1.41.65-.22,0-.54,0-.69,0-.32,0-.5.29-.5.65s.14.65.47.65,1.37-.18,3.42-.18,3.54.18,3.9.18.54-.25.54-.61-.15-.69-.54-.69c-.22,0-.58,0-.76,0-.86,0-1.3-.18-1.59-.58a7.47,7.47,0,0,1-.36-3.1V16.61c0-1.91.15-2.74.62-3.28a6.51,6.51,0,0,1,4.47-2.12,3.37,3.37,0,0,1,3.28,1.73c.39.86.61,2.48.61,6a19.67,19.67,0,0,1-.36,5.2c-.18.43-.54.68-1.33.68l-.76,0c-.29,0-.5.29-.5.65s.14.65.46.65,1.37-.18,3.43-.18,3.35.18,3.64.18.51-.25.51-.61-.18-.69-.51-.69m-20.42-1.22a.71.71,0,0,0-.47.25,2.56,2.56,0,0,1-2.13,1,2,2,0,0,1-1.83-.93,6.73,6.73,0,0,1-.36-2.67c0-.79,0-4.29.07-9.16,0-.36.14-.54.57-.54,1.27,0,2.85.07,3.39.07.33,0,.65-.25.65-.86s-.22-.83-.61-.83S194.34,10,193,10c-.43,0-.54-.18-.54-.54,0-1.19.07-2.85.07-3.18s-.14-.68-.54-.68-.61.32-.68.68c-.54,2.56-1.23,3.61-3.53,4-.26,0-.47.18-.47.65s.25.68.54.68,1-.07,1.8-.07c.47,0,.61.14.61.54-.07,4.94-.18,8.51-.18,9.84a6.43,6.43,0,0,0,.58,3.18,2.9,2.9,0,0,0,2.85,1.33,5.49,5.49,0,0,0,4-1.66.75.75,0,0,0,.25-.5.64.64,0,0,0-.61-.65M186.9,24c-.32,0-.9.22-1.22.22a1.25,1.25,0,0,1-1-.4,4.62,4.62,0,0,1-.61-2.85V15.14c0-3.5.25-5.27.25-5.52s-.17-.51-.54-.51a4.81,4.81,0,0,0-.93.33,17,17,0,0,1-3.32.76c-.25,0-.43.25-.43.61s.25.58.47.58c.83.07,1.73.25,2,.9s.33,1.33.33,3.31v4c0,1.73-.15,2.78-.58,3.28a5.88,5.88,0,0,1-4.22,1.66c-2,0-3.06-.72-3.57-1.91S173,20,173,16.43a53.34,53.34,0,0,1,.47-6.77.55.55,0,0,0-.5-.55,2,2,0,0,0-.72.22,16.71,16.71,0,0,1-3.79.87c-.25,0-.43.25-.43.61s.22.58.43.58c.94.07,1.84.25,2.16,1a5.65,5.65,0,0,1,.26,1.83c0,1.09,0,3.94,0,4.83,0,2.93.25,4.55,1.08,5.81a4.61,4.61,0,0,0,3.82,1.69,8.44,8.44,0,0,0,5.2-1.76c.21-.18.54-.51.75-.51s.22.08.26.33c.1.65.18,1.3.29,1.69s.21.43.5.43.9-.5,2.16-.9c.9-.32,1.73-.5,2.16-.65a.54.54,0,0,0,.33-.57c0-.33-.14-.62-.47-.62m-19.05-3.71a.65.65,0,0,0-.69.47,7,7,0,0,1-1.94,3.17c-.73.54-2,.65-3.9.65-3,0-4.61-.21-5.08-1a4.36,4.36,0,0,1-.33-1.91V7.53c0-2.13.15-3.1.47-3.46a2.22,2.22,0,0,1,1.88-.61l.61,0c.43,0,.54-.36.54-.72s-.18-.61-.58-.61-1.55.21-3.78.21-4-.21-4.44-.21-.54.21-.54.68.26.65.47.65l.72,0a2.14,2.14,0,0,1,1.88.72,8.1,8.1,0,0,1,.32,3.21V21.05a7.18,7.18,0,0,1-.36,3.06,1.89,1.89,0,0,1-1.76.72l-.8,0c-.29,0-.47.25-.47.68s.33.65.51.65c.4,0,3.39-.14,5.59-.14,4.61,0,6.77.14,10.24.14.54,0,.9-.32,1.11-.94a32.92,32.92,0,0,0,1-4.47c0-.28-.32-.43-.68-.43m-31.11,3.43A5.4,5.4,0,0,1,133.56,25c-2.27,0-3.31-1.4-3.31-2.7a2.65,2.65,0,0,1,1.91-2.42,31.27,31.27,0,0,1,3.71-.93,5.5,5.5,0,0,1,1.08-.15.5.5,0,0,1,.54.51c0,.43,0,1,0,1.73,0,1.58-.29,2.2-.79,2.67m6.12.11a.62.62,0,0,0-.65.47,1.06,1.06,0,0,1-1,.71c-.86,0-1.59-.61-1.59-3.06s.11-5.91.11-7.72a5.87,5.87,0,0,0-.65-3.31,3.46,3.46,0,0,0-3.17-1.41A9.54,9.54,0,0,0,130.32,12a4.37,4.37,0,0,0-1.62,2.78,1.33,1.33,0,0,0,1.37,1.51,1.23,1.23,0,0,0,1.37-1.19c0-.54-.26-.76-.26-1.51,0-1.27,1.84-2.42,3.21-2.42a2.63,2.63,0,0,1,2.42,1c.5.75.68,1.62.68,4.39,0,.83-.36,1.05-1.4,1.23-3.93.72-5.48,1.19-6.64,1.84a3.3,3.3,0,0,0-1.58,2.95c0,2.27,1.94,4.18,4.72,4.18A5.48,5.48,0,0,0,136.84,25c.26-.25.37-.43.58-.43s.25.15.32.36a2.39,2.39,0,0,0,2.46,1.7A3.4,3.4,0,0,0,143,25.27a1.57,1.57,0,0,0,.4-.9.51.51,0,0,0-.55-.54M126.57,25c-.11,0-.32,0-.58,0-.93,0-1.4-.18-1.69-.58s-.4-1.29-.4-3.06V16.36c0-1.69,0-3.57.11-5.48,0-.43,0-.93,0-1.08a.52.52,0,0,0-.47-.58,1.17,1.17,0,0,0-.69.26,14.49,14.49,0,0,1-3.6,1.83.47.47,0,0,0-.29.47c0,.37.11.47.4.54.72.18,1.62.43,1.94,1.09a6.86,6.86,0,0,1,.47,3.31v4.76a7.34,7.34,0,0,1-.4,2.92c-.18.4-.68.65-1.44.65-.18,0-.5,0-.65,0a.55.55,0,0,0-.5.62c0,.39.11.68.47.68s1.33-.18,3.53-.18,3.43.18,3.75.18.54-.21.54-.64-.18-.66-.54-.66M122.5,6.85a1.63,1.63,0,0,0,1.69-1.73,1.61,1.61,0,0,0-1.73-1.73,1.73,1.73,0,1,0,0,3.46M116.84,25c-.11,0-.51,0-.69,0-1,0-1.19-.14-1.44-.58-.18-.28-.29-.93-.29-3.85V16.33c0-3.1-.32-4.36-1-5.38a3.81,3.81,0,0,0-3.46-1.51A9,9,0,0,0,104,12a1.37,1.37,0,0,1-.44.25c-.14,0-.32-.07-.32-.36,0-.79,0-1.91-.07-2.23a.48.48,0,0,0-.47-.44,1.11,1.11,0,0,0-.65.26,15.39,15.39,0,0,1-3.28,1.83.53.53,0,0,0-.29.51c0,.33.14.43.29.47,1,.25,1.77.5,2.09,1.15a7.53,7.53,0,0,1,.43,3.35v4.65a8.76,8.76,0,0,1-.39,3,1.46,1.46,0,0,1-1.41.65c-.21,0-.54,0-.72,0s-.47.29-.47.66.14.64.43.64,1.41-.18,3.46-.18,3.46.18,3.83.18a.54.54,0,0,0,.57-.61c0-.4-.14-.69-.57-.69-.18,0-.54,0-.73,0-.86,0-1.22-.18-1.51-.58a6.76,6.76,0,0,1-.4-3.1V16.79c0-1.91.26-2.74.69-3.28a6.51,6.51,0,0,1,4.36-2.12,3.37,3.37,0,0,1,3.28,1.73c.4.86.61,2.56.61,6.13,0,2.74,0,4.32-.36,5.12-.14.43-.5.68-1.33.68l-.76,0c-.29,0-.5.29-.5.66s.14.64.5.64,1.34-.18,3.36-.18,3.39.18,3.67.18.54-.25.54-.61-.21-.69-.57-.69M95.17,9.48a6.09,6.09,0,0,0-4.43,2.63.39.39,0,0,1-.33.14c-.11,0-.21-.07-.21-.36,0-.75,0-1.94-.08-2.23a.44.44,0,0,0-.46-.44,1.06,1.06,0,0,0-.65.26,14.4,14.4,0,0,1-3.28,1.83.53.53,0,0,0-.29.51c0,.33.14.43.29.47,1,.25,1.76.5,2.09,1.15a7.69,7.69,0,0,1,.43,3.35v4.8a6.88,6.88,0,0,1-.4,2.81,1.55,1.55,0,0,1-1.4.65c-.22,0-.55,0-.72,0s-.47.26-.47.66.18.64.47.64,1.47-.18,3.49-.18c2.17,0,3.86.18,4.22.18a.57.57,0,0,0,.58-.64c0-.37-.15-.66-.58-.66-.22,0-.58,0-.76,0-1,0-1.51-.18-1.84-.58s-.5-1.26-.5-3V16.79a6.62,6.62,0,0,1,.65-3.2,3.67,3.67,0,0,1,2.52-1.91,1.49,1.49,0,0,1,1.3.79,1.09,1.09,0,0,0,1.08.58,1.58,1.58,0,0,0,1.52-1.74c0-1.08-.87-1.83-2.24-1.83m-18.49,16c-3.39,0-5.77-3-5.77-7.68,0-4.43,2.2-7.06,5.62-7.06s5.7,2.77,5.7,7.43-2.09,7.31-5.55,7.31m.14-16c-4.65,0-8.51,3.17-8.51,8.87,0,4.51,3,8.36,8.11,8.36,5.41,0,8.51-4,8.51-9,0-4.76-3-8.19-8.11-8.19M63.88,12.2c0-.35.1-.49.58-.49,2.27,0,3.06.07,3.35.07s.68-.21.68-.86-.28-.83-.64-.83c-.76,0-1.3.11-3.39.11-.51,0-.52-.15-.52-.54a20.12,20.12,0,0,1,.77-5.51A3.56,3.56,0,0,1,68,1.48c.9,0,1.51.21,1.77.68A3.17,3.17,0,0,1,70,3.32,1.45,1.45,0,0,0,72.86,3c0-2-2.06-2.81-4.19-2.81a6.63,6.63,0,0,0-4.36,1.4C63,2.81,62.31,4.37,62,7.14h0v0c0,.27-.05.55-.08.83a2.85,2.85,0,0,1-.7,1.69,3,3,0,0,1-1.94.76c-.22,0-.44.11-.44.58s.11.75.4.75.9-.07,1.91-.07c.5,0,.61.11.61.58v9.12a8.25,8.25,0,0,1-.32,3c-.18.39-.69.68-1.52.68-.21,0-.54,0-.68,0s-.47.26-.47.62.14.68.51.68,1.44-.18,3.49-.18,4.15.18,4.47.18.51-.21.51-.64-.11-.66-.51-.66-.65,0-.9,0a2.64,2.64,0,0,1-1.91-.54c-.36-.4-.54-1.26-.54-3.1V12.2M52.81,6.85a1.64,1.64,0,0,0,1.7-1.73,1.61,1.61,0,0,0-1.73-1.73,1.73,1.73,0,1,0,0,3.46M56.89,25c-.11,0-.33,0-.58,0-.94,0-1.41-.18-1.7-.58s-.39-1.29-.39-3.06V16.36c0-1.69,0-3.57.11-5.48,0-.43,0-.93,0-1.08,0-.36-.21-.58-.47-.58a1.17,1.17,0,0,0-.68.26,14.56,14.56,0,0,1-3.61,1.83.48.48,0,0,0-.29.47c0,.37.11.47.4.54.72.18,1.62.43,1.95,1.09a7,7,0,0,1,.46,3.31v4.76a7.58,7.58,0,0,1-.39,2.92c-.18.4-.69.65-1.44.65-.18,0-.51,0-.65,0a.56.56,0,0,0-.51.62c0,.39.11.68.47.68s1.34-.18,3.54-.18,3.42.18,3.75.18.54-.21.54-.64-.18-.66-.54-.66m-9.48,0-.8,0c-.86,0-1.3-.18-1.59-.57s-.39-1.26-.39-3.07V8.73c0-5.23.11-7.65.11-8.15a.38.38,0,0,0-.36-.4,1.22,1.22,0,0,0-.69.29,20.23,20.23,0,0,1-3.57,1.77.46.46,0,0,0-.25.46.48.48,0,0,0,.22.47c.28.11.61.15.83.22a2,2,0,0,1,1.19.9,21.07,21.07,0,0,1,.36,5.26V21.37a8.37,8.37,0,0,1-.36,3,1.62,1.62,0,0,1-1.45.68c-.29,0-.64,0-.79,0s-.43.25-.43.61.11.69.43.69,1.51-.18,3.71-.18,3.43.18,3.79.18.43-.22.43-.69-.14-.61-.39-.61M31.83,23.72A5.34,5.34,0,0,1,28.66,25c-2.27,0-3.32-1.4-3.32-2.7a2.66,2.66,0,0,1,1.91-2.42A31.47,31.47,0,0,1,31,19a5.5,5.5,0,0,1,1.08-.15.5.5,0,0,1,.54.51c0,.43,0,1,0,1.73,0,1.58-.28,2.2-.79,2.67m6.13.11a.62.62,0,0,0-.65.47,1.06,1.06,0,0,1-1,.71c-.87,0-1.59-.61-1.59-3.06s.11-5.91.11-7.72a6,6,0,0,0-.65-3.31A3.48,3.48,0,0,0,31,9.51,9.54,9.54,0,0,0,25.41,12a4.42,4.42,0,0,0-1.62,2.78,1.33,1.33,0,0,0,1.37,1.51,1.23,1.23,0,0,0,1.37-1.19c0-.54-.25-.76-.25-1.51,0-1.27,1.84-2.42,3.21-2.42a2.61,2.61,0,0,1,2.41,1c.51.75.69,1.62.69,4.39,0,.83-.36,1.05-1.41,1.23-3.93.72-5.48,1.19-6.63,1.84A3.3,3.3,0,0,0,23,22.56c0,2.27,1.95,4.18,4.73,4.18A5.49,5.49,0,0,0,31.94,25c.25-.25.36-.43.58-.43s.25.15.32.36a2.37,2.37,0,0,0,2.45,1.7,3.37,3.37,0,0,0,2.81-1.37,1.51,1.51,0,0,0,.4-.9.5.5,0,0,0-.54-.54M20.69,19.72a.65.65,0,0,0-.72.5,8.12,8.12,0,0,1-1.73,3c-1,1-2.56,2-5.55,2-5.95,0-10-4.25-10-11C2.7,7.1,7,3.49,12.22,3.49c3.82,0,5.09.83,5.88,1.73a7.5,7.5,0,0,1,1.33,3.36c.08.28.29.43.72.43s.72-.15.72-.61c0-.62-.43-2.85-.47-4.58,0-.51-.39-.76-.93-.87A22.85,22.85,0,0,0,13,2C4.58,2,0,7.35,0,14.63c0,6.74,4.07,12,12.47,12A12.94,12.94,0,0,0,19,25.27a2.82,2.82,0,0,0,1.26-1.16,13.46,13.46,0,0,0,1-3.89c0-.33-.18-.5-.62-.5"/><path class="cls-2" d="M375.25,40.83V39.52a.42.42,0,0,0-.42-.43H50a.42.42,0,0,0-.42.43v1.31a.42.42,0,0,0,.42.42H374.83a.42.42,0,0,0,.42-.42"/><path class="cls-1" d="M94.54,61.06A6.89,6.89,0,0,1,95,58.62a6.62,6.62,0,0,1,1.31-2.16,6.44,6.44,0,0,1,4.9-2.13,6.16,6.16,0,0,1,3.22.81,5.23,5.23,0,0,1,2,2.12l-2,1.39a3.6,3.6,0,0,0-.65-1,3.41,3.41,0,0,0-.81-.63,3.82,3.82,0,0,0-.91-.33,5.09,5.09,0,0,0-.94-.1,3.6,3.6,0,0,0-1.71.4,3.86,3.86,0,0,0-1.22,1,4.62,4.62,0,0,0-.74,1.45,5.66,5.66,0,0,0-.24,1.61,5.07,5.07,0,0,0,.29,1.73,4.8,4.8,0,0,0,.8,1.46,4,4,0,0,0,1.26,1,3.43,3.43,0,0,0,1.6.38,4.05,4.05,0,0,0,1-.12,3.43,3.43,0,0,0,.94-.35,3.62,3.62,0,0,0,.83-.64,3,3,0,0,0,.61-.95l2.15,1.24a4.1,4.1,0,0,1-.93,1.33,6,6,0,0,1-1.35,1,7.13,7.13,0,0,1-1.6.6,7,7,0,0,1-1.67.21,5.71,5.71,0,0,1-2.65-.61,6.85,6.85,0,0,1-2.06-1.59A7.59,7.59,0,0,1,95,63.59,7,7,0,0,1,94.54,61.06Z"/><path class="cls-1" d="M107.36,62.93a5.44,5.44,0,0,1,.37-2,4.86,4.86,0,0,1,2.68-2.76,5.74,5.74,0,0,1,4.36,0A4.92,4.92,0,0,1,117.45,61a5.54,5.54,0,0,1,0,3.93,5,5,0,0,1-1,1.65,4.69,4.69,0,0,1-1.64,1.12,5.89,5.89,0,0,1-4.37,0,4.92,4.92,0,0,1-1.65-1.12,5,5,0,0,1-1-1.65A5.42,5.42,0,0,1,107.36,62.93Zm2.62,0a3.57,3.57,0,0,0,.2,1.21,3,3,0,0,0,.55.94,2.59,2.59,0,0,0,.83.61,2.52,2.52,0,0,0,2.06,0,2.44,2.44,0,0,0,.82-.61,3.1,3.1,0,0,0,.56-1,3.67,3.67,0,0,0,.2-1.22,3.6,3.6,0,0,0-.2-1.2,2.94,2.94,0,0,0-.56-.94,2.47,2.47,0,0,0-.82-.62,2.53,2.53,0,0,0-1-.21,2.37,2.37,0,0,0-1,.22,2.58,2.58,0,0,0-.84.63,2.91,2.91,0,0,0-.55.94A3.6,3.6,0,0,0,110,62.93Z"/><path class="cls-1" d="M119.33,65.6V54h2.54V64.71a1.27,1.27,0,0,0,.27.86,1,1,0,0,0,.77.3,1.57,1.57,0,0,0,.5-.08,2.92,2.92,0,0,0,.52-.19l.34,1.94a5.2,5.2,0,0,1-1.19.38,7.28,7.28,0,0,1-1.24.12,2.54,2.54,0,0,1-1.85-.63A2.39,2.39,0,0,1,119.33,65.6Z"/><path class="cls-1" d="M125.1,65.6V54h2.54V64.71a1.27,1.27,0,0,0,.27.86,1,1,0,0,0,.76.3,1.59,1.59,0,0,0,.51-.08,2.82,2.82,0,0,0,.51-.19l.35,1.94a5.13,5.13,0,0,1-1.2.38,7.08,7.08,0,0,1-1.23.12,2.59,2.59,0,0,1-1.86-.63A2.43,2.43,0,0,1,125.1,65.6Z"/><path class="cls-1" d="M130.24,62.92a5.45,5.45,0,0,1,.36-2,4.76,4.76,0,0,1,1.05-1.63,5,5,0,0,1,1.66-1.12,5.53,5.53,0,0,1,2.2-.42,5.35,5.35,0,0,1,2.17.42,5.16,5.16,0,0,1,1.64,1.11,4.65,4.65,0,0,1,1,1.61,5.16,5.16,0,0,1,.35,1.9c0,.19,0,.36,0,.52a2.18,2.18,0,0,1,0,.41h-7.7a3,3,0,0,0,.28,1.07,2.69,2.69,0,0,0,.59.81,2.57,2.57,0,0,0,.82.51,2.8,2.8,0,0,0,1,.17,2.86,2.86,0,0,0,1.43-.38,2,2,0,0,0,.93-1l2.18.63a4.37,4.37,0,0,1-1.76,1.84,6.07,6.07,0,0,1-5,.3,5.07,5.07,0,0,1-1.65-1.12,4.91,4.91,0,0,1-1.06-1.66A5.3,5.3,0,0,1,130.24,62.92Zm2.66-1h5.17a2.53,2.53,0,0,0-.83-1.74,2.6,2.6,0,0,0-1.77-.65,2.56,2.56,0,0,0-1,.18,2.45,2.45,0,0,0-.79.49,2.66,2.66,0,0,0-.57.75A2.57,2.57,0,0,0,132.9,61.94Z"/><path class="cls-1" d="M141.58,62.84a5.57,5.57,0,0,1,.34-2,5.27,5.27,0,0,1,1-1.61,4.28,4.28,0,0,1,1.47-1.09,4.53,4.53,0,0,1,1.88-.4,3.86,3.86,0,0,1,2,.53,4.44,4.44,0,0,1,1.44,1.39V57.94h2.23v9.48a4.5,4.5,0,0,1-.42,2,4.65,4.65,0,0,1-1.15,1.48,5.18,5.18,0,0,1-1.74.93,7.11,7.11,0,0,1-2.21.33,6.59,6.59,0,0,1-2.75-.51,5.54,5.54,0,0,1-1.91-1.45l1.38-1.42a4,4,0,0,0,1.44,1.16,4,4,0,0,0,1.84.43,3.61,3.61,0,0,0,1.13-.18,2.54,2.54,0,0,0,.95-.53,2.62,2.62,0,0,0,.66-.93,3.56,3.56,0,0,0,.23-1.33V66.05A3.35,3.35,0,0,1,148,67.46a3.85,3.85,0,0,1-1.91.49,4,4,0,0,1-1.83-.4,4.38,4.38,0,0,1-1.42-1.11,5,5,0,0,1-.93-1.63A6,6,0,0,1,141.58,62.84Zm2.62.09a3.12,3.12,0,0,0,.2,1.11A3,3,0,0,0,145,65a2.79,2.79,0,0,0,.87.61,2.58,2.58,0,0,0,1.08.22,2.4,2.4,0,0,0,.8-.13,3.52,3.52,0,0,0,.7-.35,3.12,3.12,0,0,0,.57-.52,2.26,2.26,0,0,0,.37-.63V61.83a3,3,0,0,0-1.07-1.37,2.54,2.54,0,0,0-1.52-.52,2.33,2.33,0,0,0-1.06.24,2.66,2.66,0,0,0-.82.67,3,3,0,0,0-.52,1A3.5,3.5,0,0,0,144.2,62.93Z"/><path class="cls-1" d="M153.47,62.92a5.26,5.26,0,0,1,.37-2,4.88,4.88,0,0,1,1-1.63,5.16,5.16,0,0,1,1.67-1.12,5.48,5.48,0,0,1,2.19-.42,5.37,5.37,0,0,1,2.18.42,5.11,5.11,0,0,1,1.63,1.11,4.68,4.68,0,0,1,1,1.61,5.37,5.37,0,0,1,.35,1.9c0,.19,0,.36,0,.52a2.18,2.18,0,0,1,0,.41h-7.71a3.18,3.18,0,0,0,.29,1.07,2.69,2.69,0,0,0,.59.81,2.57,2.57,0,0,0,.82.51,2.75,2.75,0,0,0,.95.17,2.89,2.89,0,0,0,1.43-.38,2,2,0,0,0,.93-1l2.18.63a4.37,4.37,0,0,1-1.76,1.84,6.07,6.07,0,0,1-5,.3,5.12,5.12,0,0,1-1.66-1.12,5,5,0,0,1-1.05-1.66A5.31,5.31,0,0,1,153.47,62.92Zm2.67-1h5.17a2.62,2.62,0,0,0-3.56-2.21,2.61,2.61,0,0,0-.8.49,2.83,2.83,0,0,0-.56.75A2.57,2.57,0,0,0,156.14,61.94Z"/><path class="cls-1" d="M169.22,62.93a5.44,5.44,0,0,1,.36-2,5,5,0,0,1,1-1.63,4.8,4.8,0,0,1,1.64-1.13,5.25,5.25,0,0,1,2.19-.43,5.19,5.19,0,0,1,2.17.43A4.92,4.92,0,0,1,179.3,61a5.54,5.54,0,0,1,0,3.93,5,5,0,0,1-1,1.65,4.74,4.74,0,0,1-1.63,1.12,5.92,5.92,0,0,1-4.38,0,4.88,4.88,0,0,1-1.64-1.12,5.07,5.07,0,0,1-1-1.65A5.41,5.41,0,0,1,169.22,62.93Zm2.61,0a3.57,3.57,0,0,0,.2,1.21,3,3,0,0,0,.56.94,2.44,2.44,0,0,0,.82.61,2.4,2.4,0,0,0,1,.22,2.37,2.37,0,0,0,1-.22,2.44,2.44,0,0,0,.82-.61,3.1,3.1,0,0,0,.56-1,3.67,3.67,0,0,0,.2-1.22,3.6,3.6,0,0,0-.2-1.2,2.94,2.94,0,0,0-.56-.94,2.47,2.47,0,0,0-.82-.62,2.52,2.52,0,0,0-1-.21,2.38,2.38,0,0,0-1,.22,2.44,2.44,0,0,0-.83.63,2.94,2.94,0,0,0-.56.94A3.6,3.6,0,0,0,171.83,62.93Z"/><path class="cls-1" d="M180.35,60.41V58.62h1.32V58a4.73,4.73,0,0,1,.89-3.05A2.93,2.93,0,0,1,185,53.81a5.59,5.59,0,0,1,2.45.6l-.51,2a2.84,2.84,0,0,0-.68-.27,2.45,2.45,0,0,0-.71-.12c-.89,0-1.33.63-1.33,1.89v.75h2.44v1.79h-2.44V67.9h-2.54V60.41Z"/><path class="cls-1" d="M191.39,67.9l5.15-13.5h2.32L204,67.9h-2.7L200,64.48h-4.71l-1.23,3.42Zm4.37-5.21h3.8l-1.86-5.31Z"/><path class="cls-1" d="M205,67.9v-10h2.34V60a4.56,4.56,0,0,1,.62-.91,5.21,5.21,0,0,1,.78-.71,3.33,3.33,0,0,1,.85-.45,2.26,2.26,0,0,1,.83-.16h.31l.2,0v2.28a4.93,4.93,0,0,0-2.08.45,2.65,2.65,0,0,0-1.31,1.29V67.9Z"/><path class="cls-1" d="M211.69,59.73V57.94H213v-3.4h2.54v3.4h2.1v1.79h-2.1v5a1,1,0,0,0,.27.77,1,1,0,0,0,.68.23,2.06,2.06,0,0,0,.77-.14l.62-.23.51,2a8.17,8.17,0,0,1-1.26.45,5.28,5.28,0,0,1-1.55.22,3.56,3.56,0,0,1-1-.13,2.22,2.22,0,0,1-.82-.43,2.36,2.36,0,0,1-.56-.78,3.05,3.05,0,0,1-.2-1.16V59.73Z"/><path class="cls-1" d="M219,66.57l1-1.6a7.8,7.8,0,0,0,1.78,1,4.82,4.82,0,0,0,1.73.33,2.16,2.16,0,0,0,1.19-.29.93.93,0,0,0,.43-.82.84.84,0,0,0-.5-.79,12.24,12.24,0,0,0-1.67-.57q-1-.27-1.65-.51a4.31,4.31,0,0,1-1.12-.57,1.91,1.91,0,0,1-.61-.73,2.26,2.26,0,0,1-.19-1,3.12,3.12,0,0,1,.29-1.36,3,3,0,0,1,.83-1,4,4,0,0,1,1.26-.65,4.8,4.8,0,0,1,1.55-.23,6.51,6.51,0,0,1,2.1.32,5.13,5.13,0,0,1,1.79,1l-1,1.55a5.85,5.85,0,0,0-1.47-.84,3.92,3.92,0,0,0-1.41-.27,2.11,2.11,0,0,0-1.08.26,1,1,0,0,0-.44.87.84.84,0,0,0,.11.44.89.89,0,0,0,.33.3,2.89,2.89,0,0,0,.6.26c.24.08.55.17.92.26.68.18,1.27.36,1.75.54a4.47,4.47,0,0,1,1.2.61,2.23,2.23,0,0,1,.69.79,2.55,2.55,0,0,1,.21,1.09,2.74,2.74,0,0,1-1.08,2.29,4.76,4.76,0,0,1-2.95.83,7.8,7.8,0,0,1-2.45-.39A5.93,5.93,0,0,1,219,66.57Z"/><path class="cls-1" d="M233.18,63.93a3.49,3.49,0,0,1,.19-1.14,3.85,3.85,0,0,1,.53-.95,4.86,4.86,0,0,1,.76-.81,8.8,8.8,0,0,1,.91-.7,7.8,7.8,0,0,1-1.17-1.54,2.94,2.94,0,0,1-.34-1.35,2.82,2.82,0,0,1,.29-1.27,3.06,3.06,0,0,1,.79-1,3.67,3.67,0,0,1,1.17-.64,5.12,5.12,0,0,1,2.83,0,3.82,3.82,0,0,1,1.13.54,2.77,2.77,0,0,1,.8.9,2.56,2.56,0,0,1,.31,1.26,3,3,0,0,1-.65,1.89,8.39,8.39,0,0,1-1.65,1.52l2.57,2.66A5.4,5.4,0,0,0,242.1,62a6.7,6.7,0,0,0,.17-1.53h2.17a9,9,0,0,1-.34,2.41,7.49,7.49,0,0,1-.9,2L246,67.9h-3.36l-1.09-1.24a5.71,5.71,0,0,1-3.8,1.42,5.13,5.13,0,0,1-1.89-.33,4.35,4.35,0,0,1-1.43-.9,4.2,4.2,0,0,1-.91-1.33A4,4,0,0,1,233.18,63.93Zm2.46,0a1.87,1.87,0,0,0,.17.76,2,2,0,0,0,.49.63,2.71,2.71,0,0,0,.75.42,2.85,2.85,0,0,0,.94.15,3.53,3.53,0,0,0,2.19-.76l-3.11-3.23a4.72,4.72,0,0,0-1,.95A1.76,1.76,0,0,0,235.64,64Zm.76-6.59a1,1,0,0,0,.06.33,1.35,1.35,0,0,0,.19.35,4.78,4.78,0,0,0,.35.43c.14.16.33.36.56.6a6.23,6.23,0,0,0,1.1-.91,1.37,1.37,0,0,0,.38-.93,1.05,1.05,0,0,0-.35-.81,1.5,1.5,0,0,0-1.9.06A1.15,1.15,0,0,0,236.4,57.36Z"/><path class="cls-1" d="M250.73,66.34l1.16-2.26a4.61,4.61,0,0,0,.62.45,9.3,9.3,0,0,0,1.06.56,9.14,9.14,0,0,0,1.34.46,6,6,0,0,0,1.52.19c1.44,0,2.17-.47,2.17-1.4a1.21,1.21,0,0,0-.24-.76,2,2,0,0,0-.71-.54,5.51,5.51,0,0,0-1.1-.42l-1.44-.42a12.05,12.05,0,0,1-1.68-.58,4.18,4.18,0,0,1-1.19-.75,2.74,2.74,0,0,1-.72-1,3.41,3.41,0,0,1-.24-1.34,4.24,4.24,0,0,1,.38-1.83,3.84,3.84,0,0,1,1.06-1.33,4.75,4.75,0,0,1,1.57-.8,6.23,6.23,0,0,1,1.92-.28,7.45,7.45,0,0,1,2.63.45,10.1,10.1,0,0,1,2.08,1.05l-1.16,2.13a2.4,2.4,0,0,0-.48-.36,6.13,6.13,0,0,0-.86-.45,7.74,7.74,0,0,0-1.09-.36,4.38,4.38,0,0,0-1.19-.16,2.72,2.72,0,0,0-1.62.4,1.32,1.32,0,0,0-.54,1.12,1.2,1.2,0,0,0,.2.7,1.79,1.79,0,0,0,.58.49,4.48,4.48,0,0,0,1,.37l1.34.37c.66.18,1.25.37,1.8.58a4.73,4.73,0,0,1,1.37.76,3.26,3.26,0,0,1,.86,1.1,3.74,3.74,0,0,1,.31,1.58,3.88,3.88,0,0,1-.41,1.84,3.45,3.45,0,0,1-1.11,1.23,4.75,4.75,0,0,1-1.59.68,8.32,8.32,0,0,1-1.9.21,10.28,10.28,0,0,1-3-.44A9.19,9.19,0,0,1,250.73,66.34Z"/><path class="cls-1" d="M262.36,62.91a5.44,5.44,0,0,1,.36-2,4.84,4.84,0,0,1,1-1.62,5.18,5.18,0,0,1,1.65-1.12,5.32,5.32,0,0,1,2.19-.43,5.2,5.2,0,0,1,2.78.71,4.47,4.47,0,0,1,1.72,1.84l-2.49.76a2.24,2.24,0,0,0-.86-.84,2.31,2.31,0,0,0-1.17-.29,2.48,2.48,0,0,0-1,.21,2.52,2.52,0,0,0-.83.61,2.83,2.83,0,0,0-.56.94,3.61,3.61,0,0,0-.2,1.21,3.43,3.43,0,0,0,.21,1.22,3.31,3.31,0,0,0,.56,1,2.48,2.48,0,0,0,.83.61,2.33,2.33,0,0,0,1,.22,2.38,2.38,0,0,0,1.26-.34,2,2,0,0,0,.81-.84l2.49.76a4.16,4.16,0,0,1-1.69,1.87,5.34,5.34,0,0,1-2.83.72,5.48,5.48,0,0,1-2.19-.42,5,5,0,0,1-1.65-1.12,4.88,4.88,0,0,1-1-1.66A5.26,5.26,0,0,1,262.36,62.91Z"/><path class="cls-1" d="M273.52,56.55v-2.3h2.54v2.3Zm0,11.35v-10h2.54v10Z"/><path class="cls-1" d="M277.61,62.92a5.45,5.45,0,0,1,.36-2,4.76,4.76,0,0,1,1-1.63,5.05,5.05,0,0,1,1.67-1.12,5.48,5.48,0,0,1,2.19-.42,5.4,5.4,0,0,1,2.18.42,5.11,5.11,0,0,1,1.63,1.11,4.68,4.68,0,0,1,1,1.61,5.37,5.37,0,0,1,.35,1.9c0,.19,0,.36,0,.52a2.08,2.08,0,0,1-.05.41h-7.7a3.18,3.18,0,0,0,.28,1.07,2.87,2.87,0,0,0,.59.81,2.81,2.81,0,0,0,.82.51,2.85,2.85,0,0,0,1,.17,2.92,2.92,0,0,0,1.43-.38,2,2,0,0,0,.92-1l2.18.63a4.35,4.35,0,0,1-1.75,1.84,5.59,5.59,0,0,1-2.88.71,5.51,5.51,0,0,1-2.16-.41A4.89,4.89,0,0,1,278,64.89,5.3,5.3,0,0,1,277.61,62.92Zm2.66-1h5.17a2.52,2.52,0,0,0-.82-1.74,2.6,2.6,0,0,0-1.78-.65,2.59,2.59,0,0,0-1.75.67,2.46,2.46,0,0,0-.56.75A2.58,2.58,0,0,0,280.27,61.94Z"/><path class="cls-1" d="M289.53,67.9v-10h2.34v1.85a3.77,3.77,0,0,1,1.57-1.49,5,5,0,0,1,2.34-.54,3,3,0,0,1,1.52.35,2.54,2.54,0,0,1,.92.89,3.84,3.84,0,0,1,.44,1.26,8.33,8.33,0,0,1,.12,1.42V67.9h-2.54V62.31a2.91,2.91,0,0,0-.42-1.75,1.36,1.36,0,0,0-1.16-.55,2.24,2.24,0,0,0-.78.15,3,3,0,0,0-.75.43,3.29,3.29,0,0,0-.64.65,3,3,0,0,0-.42.84V67.9Z"/><path class="cls-1" d="M300.23,62.91a5.44,5.44,0,0,1,.36-2,4.84,4.84,0,0,1,1-1.62,5.12,5.12,0,0,1,1.66-1.12,5.77,5.77,0,0,1,5,.28A4.47,4.47,0,0,1,310,60.31l-2.49.76a2.24,2.24,0,0,0-.86-.84,2.31,2.31,0,0,0-1.17-.29,2.48,2.48,0,0,0-1,.21,2.67,2.67,0,0,0-.84.61,3,3,0,0,0-.55.94,3.61,3.61,0,0,0-.2,1.21,3.43,3.43,0,0,0,.21,1.22,3.31,3.31,0,0,0,.56,1,2.48,2.48,0,0,0,.83.61,2.29,2.29,0,0,0,1,.22,2.38,2.38,0,0,0,1.26-.34,1.91,1.91,0,0,0,.81-.84l2.49.76a4.16,4.16,0,0,1-1.69,1.87,5.34,5.34,0,0,1-2.83.72,5.48,5.48,0,0,1-2.19-.42,5,5,0,0,1-1.65-1.12,4.88,4.88,0,0,1-1-1.66A5.26,5.26,0,0,1,300.23,62.91Z"/><path class="cls-1" d="M310.62,62.92a5.45,5.45,0,0,1,.36-2,4.76,4.76,0,0,1,1-1.63,5.05,5.05,0,0,1,1.67-1.12,5.48,5.48,0,0,1,2.19-.42,5.4,5.4,0,0,1,2.18.42,5.11,5.11,0,0,1,1.63,1.11,4.68,4.68,0,0,1,1,1.61,5.37,5.37,0,0,1,.35,1.9c0,.19,0,.36,0,.52a2.08,2.08,0,0,1-.05.41h-7.7a3.18,3.18,0,0,0,.28,1.07,2.87,2.87,0,0,0,.59.81,2.81,2.81,0,0,0,.82.51,2.85,2.85,0,0,0,1,.17,2.92,2.92,0,0,0,1.43-.38,2,2,0,0,0,.92-1l2.18.63a4.35,4.35,0,0,1-1.75,1.84,5.59,5.59,0,0,1-2.88.71,5.51,5.51,0,0,1-2.16-.41A4.89,4.89,0,0,1,311,64.89,5.3,5.3,0,0,1,310.62,62.92Zm2.66-1h5.17a2.52,2.52,0,0,0-.82-1.74,2.6,2.6,0,0,0-1.78-.65,2.59,2.59,0,0,0-1.75.67,2.46,2.46,0,0,0-.56.75A2.58,2.58,0,0,0,313.28,61.94Z"/><path class="cls-1" d="M321.73,66.57l.95-1.6a7.8,7.8,0,0,0,1.78,1,4.86,4.86,0,0,0,1.73.33,2.16,2.16,0,0,0,1.19-.29.93.93,0,0,0,.44-.82.83.83,0,0,0-.51-.79,12.24,12.24,0,0,0-1.67-.57q-1-.27-1.65-.51a4.4,4.4,0,0,1-1.11-.57,1.83,1.83,0,0,1-.61-.73,2.25,2.25,0,0,1-.2-1,3,3,0,0,1,.3-1.36,2.88,2.88,0,0,1,.83-1,3.8,3.8,0,0,1,1.25-.65,4.84,4.84,0,0,1,1.55-.23,6.51,6.51,0,0,1,2.1.32,5.13,5.13,0,0,1,1.79,1l-1,1.55a6.22,6.22,0,0,0-1.47-.84,4,4,0,0,0-1.42-.27,2.11,2.11,0,0,0-1.08.26.94.94,0,0,0-.43.87.84.84,0,0,0,.1.44,1,1,0,0,0,.33.3,3.46,3.46,0,0,0,.6.26c.24.08.55.17.92.26.68.18,1.27.36,1.76.54a4.55,4.55,0,0,1,1.19.61,2.23,2.23,0,0,1,.69.79,2.55,2.55,0,0,1,.22,1.09,2.75,2.75,0,0,1-1.09,2.29,4.74,4.74,0,0,1-2.95.83,7.89,7.89,0,0,1-2.45-.39A5.93,5.93,0,0,1,321.73,66.57Z"/></svg>