<svg id="Layer_1" data-name="Layer 1" xmlns="http://www.w3.org/2000/svg" viewBox="0 0 384.655 87.534"><defs><style>.cls-1{fill:#ffc222;}.cls-2{fill:#3b2360;}</style></defs><title>the-college-mark</title><path class="cls-1" d="M357.363.737V86.8h27.292V77.7H367.2V47.332h16.6V38.357H367.2V9.835H384.41V.737Zm-18.44,49.3V72.043c0,4.426-2.09,6.516-6.516,6.516h-3.2c-4.426,0-6.516-2.09-6.516-6.516V15.49c0-4.425,2.09-6.515,6.516-6.515h2.95c4.426,0,6.516,2.09,6.516,6.515V27.539h9.59v-11.8C348.267,5.286,343.1,0,332.53,0h-3.688c-10.7,0-15.982,5.286-15.982,15.982V71.551c0,10.7,5.286,15.983,15.982,15.983h3.688c10.7,0,15.983-5.287,15.983-15.983V41.062H330.932v8.975ZM277.7.737V86.8h27.293V77.7H287.535V47.332h16.6V38.357h-16.6V9.835h17.211V.737Zm-33.316,0V86.8h26.063V77.7H254.218V.737Zm-33.317,0V86.8H237.13V77.7H220.9V.737ZM192.134,15.49V72.043c0,4.426-2.09,6.516-6.516,6.516h-2.951c-4.426,0-6.516-2.09-6.516-6.516V15.49c0-4.425,2.09-6.515,6.516-6.515h2.951c4.426,0,6.516,2.09,6.516,6.515m9.835,56.061V15.982C201.969,5.286,196.682,0,185.987,0H182.3c-10.7,0-15.982,5.286-15.982,15.982V71.551c0,10.7,5.286,15.983,15.982,15.983h3.689c10.695,0,15.982-5.287,15.982-15.983m-53.6-17.826V72.043c0,4.426-2.09,6.516-6.516,6.516h-2.705c-4.425,0-6.515-2.09-6.515-6.516V15.49c0-4.425,2.09-6.515,6.515-6.515h2.459c4.426,0,6.516,2.09,6.516,6.515V31.227h9.59V15.736C157.712,5.163,152.548,0,141.975,0h-3.2C128.083,0,122.8,5.286,122.8,15.982V71.551c0,10.7,5.287,15.983,15.983,15.983h3.2c10.7,0,15.982-5.287,15.982-15.983V53.725Z"/><path class="cls-2" d="M88.033,0V87.534h27.761V78.28H98.037V47.393h16.882V38.265H98.037V9.254h17.507V0ZM52.27,38.14V0h-10V87.534h10V47.518H68.526V87.534h10V0h-10V38.14ZM23.134,87.534V9.254h13.13V0H0V9.254H13.13v78.28Z"/></svg>