<?xml version="1.0" encoding="utf-8"?>
<!-- Generator: Adobe Illustrator 23.0.6, SVG Export Plug-In . SVG Version: 6.00 Build 0)  -->
<svg version="1.1" id="Layer_1" xmlns="http://www.w3.org/2000/svg" xmlns:xlink="http://www.w3.org/1999/xlink" x="0px" y="0px"
	 viewBox="0 0 342.2 87.6" style="enable-background:new 0 0 342.2 87.6;" xml:space="preserve">
<style type="text/css">
	.st0{fill:#FFC222;}
	.st1{fill:#3B2360;}
</style>
<path class="st0" d="M314.9,0.8v86.1h27.3v-9.1h-17.5V47.4h16.6v-9h-16.6V9.9H342V0.8H314.9z M296.5,50.1v22c0,4.4-2.1,6.5-6.5,6.5
	h-3.2c-4.4,0-6.5-2.1-6.5-6.5V15.5c0-4.4,2.1-6.5,6.5-6.5h3c4.4,0,6.5,2.1,6.5,6.5v12h9.6V15.8c0-10.5-5.2-15.7-15.7-15.7h-3.7
	c-10.7,0-16,5.3-16,16v55.6c0,10.7,5.3,16,16,16h3.7c10.7,0,16-5.3,16-16V41.1h-17.6v9L296.5,50.1z M235.3,0.8v86.1h27.3v-9.1h-17.5
	V47.4h16.6v-9h-16.6V9.9h17.2V0.8H235.3z M201.9,0.8v86.1H228v-9.1h-16.2v-77H201.9z M168.6,0.8v86.1h26.1v-9.1h-16.2v-77H168.6z
	 M149.7,15.5v56.6c0,4.4-2.1,6.5-6.5,6.5h-3c-4.4,0-6.5-2.1-6.5-6.5V15.5c0-4.4,2.1-6.5,6.5-6.5h3C147.6,9,149.7,11.1,149.7,15.5
	 M159.5,71.6V16c0-10.7-5.3-16-16-16h-3.7c-10.7,0-16,5.3-16,16v55.6c0,10.7,5.3,16,16,16h3.7C154.2,87.6,159.5,82.3,159.5,71.6
	 M105.9,53.8v18.3c0,4.4-2.1,6.5-6.5,6.5h-2.7c-4.4,0-6.5-2.1-6.5-6.5V15.5c0-4.4,2.1-6.5,6.5-6.5h2.5c4.4,0,6.5,2.1,6.5,6.5v15.7
	h9.6V15.8c0-10.6-5.2-15.7-15.7-15.7h-3.2c-10.7,0-16,5.3-16,16v55.6c0,10.7,5.3,16,16,16h3.2c10.7,0,16-5.3,16-16V53.8L105.9,53.8z
	"/>
<path class="st1" d="M0,21h66.2V0h-7v13.4H35.9V0.7h-6.9v12.8H7V0.2H0V21z M28.9,48.1H0v7.6h66.2v-7.6H35.9V35.8h30.3v-7.6H0v7.6
	h28.9V48.1z M66.2,70.1H7v-9.9H0v27.4h7v-9.9h59.2V70.1z"/>
</svg>
