<?xml version="1.0" encoding="UTF-8" standalone="no"?>
<!DOCTYPE svg PUBLIC "-//W3C//DTD SVG 1.1//EN" "http://www.w3.org/Graphics/SVG/1.1/DTD/svg11.dtd">
<svg width="100%" height="100%" viewBox="0 0 2877 2877" version="1.1" xmlns="http://www.w3.org/2000/svg" xmlns:xlink="http://www.w3.org/1999/xlink" xml:space="preserve" xmlns:serif="http://www.serif.com/" style="fill-rule:evenodd;clip-rule:evenodd;stroke-linejoin:round;stroke-miterlimit:2;">
    <g transform="matrix(1,0,0,1,-5079.27,-1380.27)">
        <g id="Artboard1">
            <g>
                <g transform="matrix(76.2963,0,0,76.2963,5079.74,4060.54)">
                    <path d="M0,-7.274L0,-0.001L2.307,-0.001L2.307,-0.77L0.831,-0.77L0.831,-3.336L2.234,-3.336L2.234,-4.095L0.831,-4.095L0.831,-6.505L2.286,-6.505L2.286,-7.274L0,-7.274ZM5.299,-0.001L6.338,-0.001L6.338,-7.274L5.548,-7.274L5.548,-2.027L4.343,-7.274L3.2,-7.274L3.2,-0.001L3.99,-0.001L3.99,-5.695L5.299,-0.001ZM9.517,-3.107L9.517,-1.248C9.517,-0.873 9.341,-0.697 8.967,-0.697L8.697,-0.697C8.323,-0.697 8.146,-0.873 8.146,-1.248L8.146,-6.027C8.146,-6.401 8.323,-6.578 8.697,-6.578L8.946,-6.578C9.32,-6.578 9.497,-6.401 9.497,-6.027L9.497,-5.009L10.307,-5.009L10.307,-6.006C10.307,-6.89 9.871,-7.336 8.977,-7.336L8.665,-7.336C7.761,-7.336 7.315,-6.89 7.315,-5.986L7.315,-1.289C7.315,-0.385 7.761,0.062 8.665,0.062L8.977,0.062C9.881,0.062 10.328,-0.385 10.328,-1.289L10.328,-3.866L8.842,-3.866L8.842,-3.107L9.517,-3.107ZM14.318,-0.001L13.196,-7.295L12.136,-7.295L11.014,-0.001L11.814,-0.001L11.98,-1.216L13.32,-1.216L13.497,-0.001L14.318,-0.001ZM12.645,-5.996L13.216,-1.964L12.084,-1.964L12.645,-5.996ZM17.227,-3.107L17.227,-1.248C17.227,-0.873 17.051,-0.697 16.677,-0.697L16.406,-0.697C16.032,-0.697 15.856,-0.873 15.856,-1.248L15.856,-6.027C15.856,-6.401 16.032,-6.578 16.406,-6.578L16.656,-6.578C17.03,-6.578 17.206,-6.401 17.206,-6.027L17.206,-5.009L18.017,-5.009L18.017,-6.006C18.017,-6.89 17.58,-7.336 16.687,-7.336L16.375,-7.336C15.471,-7.336 15.024,-6.89 15.024,-5.986L15.024,-1.289C15.024,-0.385 15.471,0.062 16.375,0.062L16.687,0.062C17.591,0.062 18.038,-0.385 18.038,-1.289L18.038,-3.866L16.552,-3.866L16.552,-3.107L17.227,-3.107ZM18.993,-7.274L18.993,-0.001L21.3,-0.001L21.3,-0.77L19.825,-0.77L19.825,-3.336L21.227,-3.336L21.227,-4.095L19.825,-4.095L19.825,-6.505L21.279,-6.505L21.279,-7.274L18.993,-7.274ZM25.352,-7.274L24.427,-1.538L23.503,-7.274L22.194,-7.274L22.194,-0.001L22.983,-0.001L22.983,-6.017L23.981,-0.001L24.833,-0.001L25.83,-6.017L25.83,-0.001L26.641,-0.001L26.641,-7.274L25.352,-7.274ZM27.638,-7.274L27.638,-0.001L29.945,-0.001L29.945,-0.77L28.469,-0.77L28.469,-3.336L29.872,-3.336L29.872,-4.095L28.469,-4.095L28.469,-6.505L29.924,-6.505L29.924,-7.274L27.638,-7.274ZM32.937,-0.001L33.976,-0.001L33.976,-7.274L33.187,-7.274L33.187,-2.027L31.981,-7.274L30.838,-7.274L30.838,-0.001L31.628,-0.001L31.628,-5.695L32.937,-0.001ZM36.605,-0.001L36.605,-6.505L37.696,-6.505L37.696,-7.274L34.683,-7.274L34.683,-6.505L35.774,-6.505L35.774,-0.001L36.605,-0.001Z" style="fill:white;fill-rule:nonzero;"/>
                </g>
                <g transform="matrix(76.2963,0,0,76.2963,6925.51,2360.44)">
                    <path d="M0,-2.798L0.794,-1.401L-4.76,1.754C-4.757,1.745 -4.754,1.737 -4.751,1.728L-9.094,4.195L-9.104,4.177C-9.301,4.318 -9.506,4.45 -9.721,4.572C-13.013,6.442 -17.213,5.285 -19.083,1.993C-20.953,-1.3 -19.796,-5.5 -16.504,-7.37C-13.851,-8.876 -10.611,-8.415 -8.473,-6.458L-6.611,-7.516C-7.721,-8.701 -9.136,-9.563 -10.741,-10.006C-13.04,-10.639 -15.448,-10.339 -17.521,-9.161C-19.595,-7.983 -21.085,-6.069 -21.719,-3.77C-22.352,-1.471 -22.052,0.937 -20.875,3.01C-19.697,5.084 -17.782,6.574 -15.483,7.208C-13.184,7.841 -10.776,7.541 -8.703,6.363L1.811,0.391L2.586,1.755L5.32,-2.728L0,-2.798Z" style="fill:white;fill-rule:nonzero;"/>
                </g>
                <g transform="matrix(76.2963,0,0,76.2963,6110.04,2146.96)">
                    <path d="M0,2.798L-0.794,1.401L4.76,-1.754C4.757,-1.745 4.754,-1.737 4.751,-1.728L9.094,-4.195L9.104,-4.177C9.301,-4.318 9.506,-4.45 9.721,-4.572C13.013,-6.442 17.213,-5.285 19.083,-1.993C20.953,1.3 19.796,5.5 16.504,7.37C13.851,8.876 10.611,8.415 8.473,6.458L6.611,7.516C7.721,8.701 9.136,9.563 10.741,10.006C13.04,10.639 15.448,10.339 17.521,9.161C19.595,7.983 21.085,6.069 21.719,3.77C22.352,1.471 22.052,-0.937 20.875,-3.01C19.697,-5.084 17.782,-6.574 15.483,-7.208C13.184,-7.841 10.776,-7.541 8.703,-6.363L-1.811,-0.391L-2.586,-1.755L-5.32,2.728L0,2.798Z" style="fill:white;fill-rule:nonzero;"/>
                </g>
            </g>
        </g>
    </g>
</svg>
