<?xml version="1.0" encoding="UTF-8" standalone="no"?>
<!DOCTYPE svg PUBLIC "-//W3C//DTD SVG 1.1//EN" "http://www.w3.org/Graphics/SVG/1.1/DTD/svg11.dtd">
<svg width="100%" height="100%" viewBox="0 0 156 156" version="1.1" xmlns="http://www.w3.org/2000/svg" xmlns:xlink="http://www.w3.org/1999/xlink" xml:space="preserve" xmlns:serif="http://www.serif.com/" style="fill-rule:evenodd;clip-rule:evenodd;stroke-linejoin:round;stroke-miterlimit:2;">
    <g id="Artboard1" transform="matrix(1,0,0,1,-4910.11,-32.3892)">
        <rect x="4910.11" y="32.389" width="155.867" height="155.947" style="fill:none;"/>
        <clipPath id="_clip1">
            <rect x="4910.11" y="32.389" width="155.867" height="155.947"/>
        </clipPath>
        <g clip-path="url(#_clip1)">
            <g transform="matrix(1,0,0,1,0.109583,0.389167)">
                <g transform="matrix(4.16667,0,0,4.16667,4910.11,188.074)">
                    <path d="M0,-7.308L0,0L2.318,0L2.318,-0.772L0.835,-0.772L0.835,-3.351L2.245,-3.351L2.245,-4.113L0.835,-4.113L0.835,-6.535L2.297,-6.535L2.297,-7.308L0,-7.308ZM6.16,-7.308L5.346,-7.308L4.583,-4.458L3.821,-7.308L2.986,-7.308L4.072,-3.643L2.965,0L3.78,0L4.563,-2.839L5.346,0L6.181,0L5.074,-3.654L6.16,-7.308ZM7.82,-2.745L8.426,-2.745C9.334,-2.745 9.783,-3.194 9.783,-4.103L9.783,-5.951C9.783,-6.859 9.334,-7.308 8.426,-7.308L6.985,-7.308L6.985,0L7.82,0L7.82,-2.745ZM8.948,-5.993L8.948,-4.061C8.948,-3.685 8.77,-3.508 8.394,-3.508L7.82,-3.508L7.82,-6.546L8.394,-6.546C8.77,-6.546 8.948,-6.368 8.948,-5.993M10.67,-7.308L10.67,0L12.884,0L12.884,-0.772L11.505,-0.772L11.505,-7.308L10.67,-7.308ZM16.611,-1.294L16.611,-6.013C16.611,-6.922 16.162,-7.371 15.254,-7.371L14.94,-7.371C14.032,-7.371 13.583,-6.922 13.583,-6.013L13.583,-1.294C13.583,-0.386 14.032,0.063 14.94,0.063L15.254,0.063C16.162,0.063 16.611,-0.386 16.611,-1.294M15.776,-6.055L15.776,-1.252C15.776,-0.877 15.598,-0.699 15.222,-0.699L14.972,-0.699C14.596,-0.699 14.418,-0.877 14.418,-1.252L14.418,-6.055C14.418,-6.431 14.596,-6.608 14.972,-6.608L15.222,-6.608C15.598,-6.608 15.776,-6.431 15.776,-6.055M19.858,-3.445C20.276,-3.612 20.505,-3.936 20.505,-4.593L20.505,-5.951C20.505,-6.859 20.056,-7.308 19.148,-7.308L17.592,-7.308L17.592,0L18.428,0L18.428,-3.069L19.044,-3.069C19.482,-3.069 19.681,-2.871 19.681,-2.432L19.681,0L20.516,0L20.516,-2.464C20.516,-3.027 20.317,-3.32 19.858,-3.445M19.67,-5.993L19.67,-4.426C19.67,-4.009 19.472,-3.81 19.054,-3.81L18.428,-3.81L18.428,-6.546L19.117,-6.546C19.493,-6.546 19.67,-6.368 19.67,-5.993M24.598,0L23.47,-7.329L22.405,-7.329L21.278,0L22.082,0L22.249,-1.221L23.596,-1.221L23.773,0L24.598,0ZM22.917,-6.024L23.491,-1.973L22.353,-1.973L22.917,-6.024ZM26.603,0L26.603,-6.535L27.699,-6.535L27.699,-7.308L24.671,-7.308L24.671,-6.535L25.767,-6.535L25.767,0L26.603,0ZM29.254,-7.308L28.419,-7.308L28.419,0L29.254,0L29.254,-7.308ZM33.274,-1.294L33.274,-6.013C33.274,-6.922 32.825,-7.371 31.917,-7.371L31.604,-7.371C30.695,-7.371 30.246,-6.922 30.246,-6.013L30.246,-1.294C30.246,-0.386 30.695,0.063 31.604,0.063L31.917,0.063C32.825,0.063 33.274,-0.386 33.274,-1.294M32.439,-6.055L32.439,-1.252C32.439,-0.877 32.261,-0.699 31.885,-0.699L31.635,-0.699C31.259,-0.699 31.081,-0.877 31.081,-1.252L31.081,-6.055C31.081,-6.431 31.259,-6.608 31.635,-6.608L31.885,-6.608C32.261,-6.608 32.439,-6.431 32.439,-6.055M36.364,0L37.408,0L37.408,-7.308L36.615,-7.308L36.615,-2.035L35.404,-7.308L34.255,-7.308L34.255,0L35.049,0L35.049,-5.721L36.364,0Z" style="fill:white;fill-rule:nonzero;"/>
                </g>
                <g transform="matrix(4.16667,0,0,4.16667,5003.01,66.0338)">
                    <path d="M0,15.169C-1.101,15.568 -2.289,15.786 -3.528,15.786C-9.246,15.786 -13.881,11.151 -13.881,5.433C-13.881,2.4 -12.576,-0.329 -10.498,-2.222L-10.958,-3.849C-13.224,-2.033 -14.81,0.595 -15.276,3.593L-15.294,3.564L-17.138,5.408L-15.294,7.252L-15.283,7.233C-14.512,12.308 -10.534,16.328 -5.481,17.163L-5.499,17.174L-3.655,19.018L-1.84,17.203C-0.766,17.05 0.263,16.754 1.225,16.334L0,15.169Z" style="fill:white;fill-rule:nonzero;"/>
                </g>
                <g transform="matrix(4.16667,0,0,4.16667,5044.49,70.6392)">
                    <path d="M0,4.43L-1.7,2.73C-2.404,-2.509 -6.519,-6.666 -11.737,-7.434L-13.483,-9.18L-15.229,-7.433C-16.283,-7.278 -17.291,-6.985 -18.235,-6.573L-17.011,-5.408C-15.91,-5.807 -14.722,-6.025 -13.483,-6.025C-7.765,-6.025 -3.13,-1.39 -3.13,4.328C-3.13,7.361 -4.435,10.09 -6.513,11.983L-6.053,13.61C-3.786,11.793 -2.199,9.164 -1.734,6.164L0,4.43Z" style="fill:white;fill-rule:nonzero;"/>
                </g>
                <g transform="matrix(4.16667,0,0,4.16667,5020.42,35.465)">
                    <path d="M0,25.539L-4.213,10.661L-15.414,0L-11.202,14.879L0,25.539ZM-5.867,11.738C-5.859,11.751 -5.851,11.765 -5.844,11.779C-5.816,11.831 -5.79,11.884 -5.766,11.939C-5.761,11.95 -5.757,11.962 -5.753,11.973C-5.734,12.02 -5.717,12.067 -5.701,12.115C-5.696,12.13 -5.691,12.146 -5.686,12.162C-5.668,12.22 -5.653,12.279 -5.64,12.339C-5.639,12.347 -5.638,12.355 -5.636,12.362C-5.626,12.417 -5.617,12.472 -5.611,12.528C-5.609,12.544 -5.607,12.561 -5.606,12.578C-5.6,12.641 -5.596,12.705 -5.596,12.77C-5.596,13.936 -6.541,14.881 -7.707,14.881C-7.772,14.881 -7.836,14.877 -7.899,14.871C-7.915,14.87 -7.93,14.868 -7.945,14.866C-8.008,14.859 -8.07,14.851 -8.13,14.838C-8.134,14.837 -8.138,14.836 -8.142,14.835C-8.199,14.823 -8.256,14.809 -8.311,14.792C-8.326,14.788 -8.34,14.783 -8.355,14.779C-8.412,14.76 -8.469,14.74 -8.524,14.717C-8.531,14.714 -8.537,14.71 -8.544,14.708C-8.594,14.686 -8.643,14.662 -8.69,14.637C-8.704,14.63 -8.717,14.623 -8.73,14.616C-8.782,14.587 -8.832,14.557 -8.881,14.524C-8.889,14.519 -8.897,14.513 -8.905,14.507C-8.947,14.478 -8.989,14.447 -9.029,14.415C-9.04,14.405 -9.052,14.396 -9.063,14.386C-9.108,14.349 -9.151,14.31 -9.193,14.269C-9.201,14.261 -9.208,14.252 -9.216,14.244C-9.251,14.208 -9.285,14.171 -9.318,14.133C-9.327,14.122 -9.337,14.111 -9.346,14.099C-9.383,14.054 -9.418,14.008 -9.451,13.959C-9.458,13.949 -9.464,13.938 -9.471,13.928C-9.69,13.595 -9.818,13.198 -9.818,12.77C-9.818,11.604 -8.873,10.659 -7.707,10.659C-6.916,10.659 -6.228,11.094 -5.867,11.738" style="fill:white;fill-rule:nonzero;"/>
                </g>
                <g transform="matrix(0,-4.16667,-4.16667,0,4988.31,83.8637)">
                    <path d="M-1.154,-1.154C-1.791,-1.154 -2.308,-0.637 -2.308,0C-2.308,0.637 -1.791,1.154 -1.154,1.154C-0.517,1.154 0,0.637 0,0C0,-0.637 -0.517,-1.154 -1.154,-1.154" style="fill:white;fill-rule:nonzero;"/>
                </g>
            </g>
        </g>
    </g>
</svg>
