<?xml version="1.0" encoding="UTF-8" standalone="no"?>
<!DOCTYPE svg PUBLIC "-//W3C//DTD SVG 1.1//EN" "http://www.w3.org/Graphics/SVG/1.1/DTD/svg11.dtd">
<svg width="100%" height="100%" viewBox="0 0 160 160" version="1.1" xmlns="http://www.w3.org/2000/svg" xmlns:xlink="http://www.w3.org/1999/xlink" xml:space="preserve" xmlns:serif="http://www.serif.com/" style="fill-rule:evenodd;clip-rule:evenodd;stroke-linejoin:round;stroke-miterlimit:2;">
    <g transform="matrix(1,0,0,1,-4906.67,-30.2243)">
        <g id="Artboard1">
            <g>
                <g>
                    <g transform="matrix(4.16667,0,0,4.16667,5001.27,126.843)">
                        <path d="M0,-1.352L-7.013,-1.352C-7.496,-1.352 -7.888,-1.05 -7.888,-0.677C-7.888,-0.303 -7.496,0 -7.013,0L0,0C0.485,0 0.877,-0.303 0.877,-0.677C0.877,-1.05 0.485,-1.352 0,-1.352" style="fill:white;fill-rule:nonzero;"/>
                    </g>
                    <g transform="matrix(4.16667,0,0,4.16667,4998.23,134.729)">
                        <path d="M0,-1.352L-5.552,-1.352C-6.035,-1.352 -6.428,-1.05 -6.428,-0.676C-6.428,-0.303 -6.035,0 -5.552,0L0,0C0.485,0 0.877,-0.303 0.877,-0.676C0.877,-1.05 0.485,-1.352 0,-1.352" style="fill:white;fill-rule:nonzero;"/>
                    </g>
                    <g transform="matrix(4.16667,0,0,4.16667,4995.18,146.688)">
                        <path d="M0,-2.328L-4.09,-2.328C-4.575,-2.328 -4.967,-2.026 -4.967,-1.653C-4.967,-1.279 -4.575,-0.977 -4.09,-0.977C-4.09,-0.977 -3.193,-0.31 -2.896,-0.107C-2.845,-0.073 -2.787,-0.046 -2.725,-0.038C-2.571,-0.019 -2.344,0 -2.045,0C-1.746,0 -1.519,-0.019 -1.365,-0.038C-1.302,-0.046 -1.245,-0.073 -1.194,-0.107C-0.896,-0.31 0,-0.977 0,-0.977C0.485,-0.977 0.877,-1.279 0.877,-1.653C0.877,-2.026 0.485,-2.328 0,-2.328" style="fill:white;fill-rule:nonzero;"/>
                    </g>
                    <g transform="matrix(4.16667,0,0,4.16667,4986.67,118.932)">
                        <path d="M0,-21.214C-5.066,-21.214 -9.173,-17.412 -9.173,-12.721C-9.173,-12.627 -9.172,-12.533 -9.168,-12.439C-9.047,-8.993 -5.951,-6.523 -5.533,-3.145C-5.428,-2.296 -5.395,-1.342 -4.684,-0.71C-4.016,-0.116 -3.022,-0.04 -2.143,-0.009C-1.882,0 1.882,0 2.143,-0.009C3.021,-0.04 4.016,-0.116 4.684,-0.71C5.395,-1.342 5.428,-2.296 5.533,-3.145C5.951,-6.523 9.047,-8.993 9.168,-12.439C9.171,-12.533 9.173,-12.627 9.173,-12.721C9.173,-17.412 5.066,-21.214 0,-21.214M7.714,-12.478C7.662,-10.98 6.881,-9.618 6.054,-8.176C5.204,-6.695 4.326,-5.165 4.098,-3.315L4.064,-3.031C3.999,-2.459 3.937,-1.919 3.68,-1.689C3.386,-1.427 2.701,-1.381 2.082,-1.36C1.929,-1.355 0.965,-1.354 0,-1.354C-0.965,-1.354 -1.931,-1.355 -2.087,-1.36C-2.701,-1.381 -3.386,-1.427 -3.681,-1.689C-3.939,-1.919 -4,-2.46 -4.064,-3.032L-4.096,-3.314C-4.326,-5.165 -5.204,-6.695 -6.053,-8.175C-6.881,-9.618 -7.662,-10.98 -7.715,-12.478L-7.719,-12.716C-7.719,-16.656 -4.257,-19.862 0,-19.862C4.256,-19.862 7.719,-16.656 7.719,-12.716L7.714,-12.478Z" style="fill:white;fill-rule:nonzero;"/>
                    </g>
                    <g transform="matrix(4.16667,0,0,4.16667,5004.28,101.276)">
                        <path d="M0,-5.438C0,-6.229 -0.621,-6.753 -1.393,-6.753L-3.376,-6.753L-6.937,-6.753C-7.709,-6.753 -8.33,-6.229 -8.33,-5.438C-8.33,-4.994 -8.066,-4.59 -7.845,-4.25C-7.392,-3.55 -6.884,-2.896 -6.423,-2.204L-6.2,-1.886C-5.989,-1.591 -5.721,-1.217 -5.61,-0.971C-5.595,-0.939 -5.582,-0.91 -5.569,-0.883C-5.536,-0.772 -5.547,-0.688 -5.547,-0.545L-5.547,0.875C-5.547,1.118 -5.352,1.315 -5.108,1.315C-4.865,1.315 -4.668,1.118 -4.668,0.875L-4.668,-0.791C-4.668,-1.268 -4.742,-1.329 -5.086,-1.811L-5.091,-1.804C-5.093,-1.807 -5.094,-1.809 -5.096,-1.811C-5.6,-2.517 -6.56,-3.853 -7.015,-4.578L-7.111,-4.729C-7.265,-4.967 -7.451,-5.25 -7.451,-5.438C-7.451,-5.745 -7.214,-5.874 -6.937,-5.874L-1.393,-5.874C-1.116,-5.874 -0.879,-5.745 -0.879,-5.438C-0.879,-5.25 -1.065,-4.967 -1.219,-4.729L-3.234,-1.811C-3.578,-1.329 -3.652,-1.268 -3.652,-0.791L-3.652,0.875C-3.652,1.118 -3.455,1.315 -3.212,1.315C-2.968,1.315 -2.773,1.118 -2.773,0.875L-2.773,-0.545C-2.773,-0.727 -2.792,-0.813 -2.714,-0.983C-2.599,-1.229 -2.337,-1.594 -2.128,-1.886C-2.05,-1.995 -1.979,-2.095 -1.905,-2.204L-0.485,-4.25C-0.264,-4.59 0,-4.994 0,-5.438" style="fill:white;fill-rule:nonzero;"/>
                    </g>
                </g>
                <g transform="matrix(4.16667,0,0,4.16667,0,-2951.24)">
                    <path d="M1180.85,746.485L1180.01,746.485L1180.01,753.812L1180.85,753.812L1180.85,746.485ZM1183.98,753.812L1185.02,753.812L1185.02,746.485L1184.23,746.485L1184.23,751.771L1183.01,746.485L1181.86,746.485L1181.86,753.812L1182.66,753.812L1182.66,748.076L1183.98,753.812ZM1188.14,753.812L1189.19,753.812L1189.19,746.485L1188.39,746.485L1188.39,751.771L1187.18,746.485L1186.03,746.485L1186.03,753.812L1186.82,753.812L1186.82,748.076L1188.14,753.812ZM1193.21,752.514L1193.21,747.783C1193.21,746.872 1192.76,746.422 1191.85,746.422L1191.54,746.422C1190.62,746.422 1190.17,746.872 1190.17,747.783L1190.17,752.514C1190.17,753.425 1190.62,753.875 1191.54,753.875L1191.85,753.875C1192.76,753.875 1193.21,753.425 1193.21,752.514M1192.37,747.741L1192.37,752.556C1192.37,752.933 1192.19,753.111 1191.82,753.111L1191.57,753.111C1191.19,753.111 1191.01,752.933 1191.01,752.556L1191.01,747.741C1191.01,747.364 1191.19,747.186 1191.57,747.186L1191.82,747.186C1192.19,747.186 1192.37,747.364 1192.37,747.741M1196,753.833L1197.17,746.485L1196.34,746.485L1195.54,752.085L1194.77,746.485L1193.92,746.485L1195.08,753.833L1196,753.833ZM1200.75,753.812L1199.62,746.464L1198.55,746.464L1197.42,753.812L1198.22,753.812L1198.39,752.588L1199.74,752.588L1199.92,753.812L1200.75,753.812ZM1199.06,747.773L1199.64,751.834L1198.5,751.834L1199.06,747.773ZM1202.76,753.812L1202.76,747.26L1203.86,747.26L1203.86,746.485L1200.82,746.485L1200.82,747.26L1201.92,747.26L1201.92,753.812L1202.76,753.812ZM1205.41,746.485L1204.58,746.485L1204.58,753.812L1205.41,753.812L1205.41,746.485ZM1209.44,752.514L1209.44,747.783C1209.44,746.872 1208.99,746.422 1208.08,746.422L1207.77,746.422C1206.86,746.422 1206.41,746.872 1206.41,747.783L1206.41,752.514C1206.41,753.425 1206.86,753.875 1207.77,753.875L1208.08,753.875C1208.99,753.875 1209.44,753.425 1209.44,752.514M1208.61,747.741L1208.61,752.556C1208.61,752.933 1208.43,753.111 1208.05,753.111L1207.8,753.111C1207.42,753.111 1207.25,752.933 1207.25,752.556L1207.25,747.741C1207.25,747.364 1207.42,747.186 1207.8,747.186L1208.05,747.186C1208.43,747.186 1208.61,747.364 1208.61,747.741M1212.54,753.812L1213.59,753.812L1213.59,746.485L1212.79,746.485L1212.79,751.771L1211.58,746.485L1210.43,746.485L1210.43,753.812L1211.22,753.812L1211.22,748.076L1212.54,753.812Z" style="fill:white;fill-rule:nonzero;"/>
                </g>
            </g>
        </g>
    </g>
</svg>
