<?xml version="1.0" encoding="UTF-8" standalone="no"?>
<!DOCTYPE svg PUBLIC "-//W3C//DTD SVG 1.1//EN" "http://www.w3.org/Graphics/SVG/1.1/DTD/svg11.dtd">
<svg width="100%" height="100%" viewBox="0 0 2443 1739" version="1.1" xmlns="http://www.w3.org/2000/svg" xmlns:xlink="http://www.w3.org/1999/xlink" xml:space="preserve" xmlns:serif="http://www.serif.com/" style="fill-rule:evenodd;clip-rule:evenodd;stroke-linejoin:round;stroke-miterlimit:2;">
    <g id="Artboard1" transform="matrix(1,0,0,1,-375.919,-735.147)">
        <rect x="375.919" y="735.147" width="2442.27" height="1738.5" style="fill:none;"/>
        <clipPath id="_clip1">
            <rect x="375.919" y="735.147" width="2442.27" height="1738.5"/>
        </clipPath>
        <g clip-path="url(#_clip1)">
            <g transform="matrix(74.6779,0,0,74.6779,544.265,735.293)">
                <path d="M0,23.28C6.287,22.248 12.77,17.603 12.77,9.346C12.77,3.67 9.602,0 4.825,0C1.365,0 -2.242,1.892 -2.242,6.594C-2.242,9.461 -0.536,13.303 5.069,13.303C6.775,13.303 8.578,12.787 9.358,11.869C9.943,11.181 10.528,11.009 10.528,11.812C10.528,17.546 4.386,20.642 -0.195,21.789L0,23.28ZM17.692,23.28C23.98,22.248 30.462,17.603 30.462,9.346C30.462,3.67 27.294,0 22.517,0C19.057,0 15.45,1.892 15.45,6.594C15.45,9.461 17.156,13.303 22.761,13.303C24.467,13.303 26.27,12.787 27.05,11.869C27.635,11.181 28.22,11.009 28.22,11.812C28.22,17.546 22.079,20.642 17.497,21.789L17.692,23.28Z" style="fill:rgb(71,150,193);fill-rule:nonzero;"/>
            </g>
        </g>
    </g>
</svg>
