<?xml version="1.0" encoding="UTF-8" standalone="no"?>
<!DOCTYPE svg PUBLIC "-//W3C//DTD SVG 1.1//EN" "http://www.w3.org/Graphics/SVG/1.1/DTD/svg11.dtd">
<svg width="100%" height="100%" viewBox="0 0 151 151" version="1.1" xmlns="http://www.w3.org/2000/svg" xmlns:xlink="http://www.w3.org/1999/xlink" xml:space="preserve" xmlns:serif="http://www.serif.com/" style="fill-rule:evenodd;clip-rule:evenodd;stroke-linejoin:round;stroke-miterlimit:2;">
    <g transform="matrix(1,0,0,1,-4912.54,-37.6461)">
        <g id="Artboard1">
            <g>
                <g transform="matrix(4.16667,0,0,4.16667,4932.75,171.978)">
                    <path d="M0,0.418C0.418,0.251 0.647,-0.073 0.647,-0.73L0.647,-2.088C0.647,-2.996 0.198,-3.445 -0.71,-3.445L-2.266,-3.445L-2.266,3.863L-1.43,3.863L-1.43,0.794L-0.814,0.794C-0.376,0.794 -0.177,0.992 -0.177,1.431L-0.177,3.863L0.658,3.863L0.658,1.399C0.658,0.836 0.459,0.543 0,0.418M-0.188,-2.13L-0.188,-0.563C-0.188,-0.146 -0.386,0.053 -0.804,0.053L-1.43,0.053L-1.43,-2.683L-0.741,-2.683C-0.365,-2.683 -0.188,-2.505 -0.188,-2.13M1.639,-3.445L1.639,3.863L3.957,3.863L3.957,3.091L2.474,3.091L2.474,0.512L3.884,0.512L3.884,-0.25L2.474,-0.25L2.474,-2.672L3.936,-2.672L3.936,-3.445L1.639,-3.445ZM4.855,-3.445L4.855,3.863L7.068,3.863L7.068,3.091L5.69,3.091L5.69,-3.445L4.855,-3.445ZM7.893,-3.445L7.893,3.863L10.211,3.863L10.211,3.091L8.728,3.091L8.728,0.512L10.138,0.512L10.138,-0.25L8.728,-0.25L8.728,-2.672L10.19,-2.672L10.19,-3.445L7.893,-3.445ZM12.915,3.884L14.074,-3.445L13.249,-3.445L12.456,2.141L11.683,-3.445L10.837,-3.445L11.996,3.884L12.915,3.884ZM17.645,3.863L16.517,-3.466L15.452,-3.466L14.324,3.863L15.128,3.863L15.295,2.642L16.642,2.642L16.82,3.863L17.645,3.863ZM15.964,-2.161L16.538,1.89L15.4,1.89L15.964,-2.161ZM20.536,3.863L21.581,3.863L21.581,-3.445L20.787,-3.445L20.787,1.827L19.576,-3.445L18.427,-3.445L18.427,3.863L19.221,3.863L19.221,-1.858L20.536,3.863ZM24.734,1.055L24.734,2.611C24.734,2.986 24.556,3.164 24.18,3.164L23.95,3.164C23.575,3.164 23.397,2.986 23.397,2.611L23.397,-2.192C23.397,-2.568 23.575,-2.746 23.95,-2.746L24.159,-2.746C24.535,-2.746 24.713,-2.568 24.713,-2.192L24.713,-0.856L25.527,-0.856L25.527,-2.171C25.527,-3.069 25.089,-3.508 24.191,-3.508L23.919,-3.508C23.011,-3.508 22.562,-3.059 22.562,-2.15L22.562,2.569C22.562,3.477 23.011,3.926 23.919,3.926L24.191,3.926C25.099,3.926 25.548,3.477 25.548,2.569L25.548,1.055L24.734,1.055ZM26.487,-3.445L26.487,3.863L28.805,3.863L28.805,3.091L27.323,3.091L27.323,0.512L28.732,0.512L28.732,-0.25L27.323,-0.25L27.323,-2.672L28.784,-2.672L28.784,-3.445L26.487,-3.445Z" style="fill:white;fill-rule:nonzero;"/>
                </g>
                <g>
                    <g transform="matrix(4.16667,0,0,4.16667,5028.37,95.4308)">
                        <path d="M0,-3.167C0.082,-2.651 0.125,-2.122 0.125,-1.584C0.125,3.969 -4.377,8.47 -9.929,8.47C-15.481,8.47 -19.983,3.969 -19.983,-1.584C-19.983,-7.136 -15.481,-11.637 -9.929,-11.637C-7.375,-11.637 -5.043,-10.684 -3.27,-9.115L-1.741,-10.642C-3.99,-12.679 -6.874,-13.794 -9.929,-13.794C-13.191,-13.794 -16.257,-12.524 -18.563,-10.218C-20.869,-7.911 -22.139,-4.845 -22.139,-1.584C-22.139,1.678 -20.869,4.744 -18.563,7.05C-16.257,9.357 -13.191,10.627 -9.929,10.627C-6.668,10.627 -3.601,9.357 -1.295,7.05C1.011,4.744 2.281,1.678 2.281,-1.584C2.281,-2.747 2.119,-3.885 1.806,-4.973L0,-3.167Z" style="fill:white;fill-rule:nonzero;"/>
                    </g>
                    <g transform="matrix(4.16667,0,0,4.16667,5035.18,112.384)">
                        <path d="M0,-15.709C0.291,-15.709 0.571,-15.593 0.777,-15.387L1.909,-14.255C2.338,-13.826 2.338,-13.13 1.909,-12.701L-10.471,-0.321C-10.686,-0.107 -10.967,0 -11.248,0C-11.529,0 -11.811,-0.107 -12.025,-0.321L-17.726,-6.022C-17.932,-6.228 -18.048,-6.508 -18.048,-6.8C-18.048,-7.091 -17.932,-7.37 -17.726,-7.577L-16.594,-8.708C-16.379,-8.923 -16.098,-9.03 -15.817,-9.03C-15.535,-9.03 -15.254,-8.923 -15.04,-8.708L-11.248,-4.917L-0.777,-15.387C-0.571,-15.593 -0.292,-15.709 0,-15.709" style="fill:white;fill-rule:nonzero;"/>
                    </g>
                </g>
            </g>
        </g>
    </g>
</svg>
