<?xml version="1.0" encoding="utf-8"?>
<!-- Generated by IcoMoon.io -->
<!DOCTYPE svg PUBLIC "-//W3C//DTD SVG 1.1//EN" "http://www.w3.org/Graphics/SVG/1.1/DTD/svg11.dtd">
<svg version="1.1" xmlns="http://www.w3.org/2000/svg" xmlns:xlink="http://www.w3.org/1999/xlink" width="32" height="32" viewBox="0 0 32 32">
<path fill="#444" d="M7.725 10.77v20.154h-6.706v-20.154h6.706zM8.162 4.538q0 1.494-1.057 2.478t-2.733 0.984h-0.036q-1.676 0-2.697-0.984t-1.020-2.478 1.057-2.478 2.733-0.984 2.697 0.984 1.057 2.478zM31.851 19.371v11.553h-6.669v-10.788q0-2.15-0.838-3.353t-2.588-1.203q-1.276 0-2.114 0.692t-1.312 1.749q-0.219 0.62-0.219 1.64v11.261h-6.706q0.036-8.127 0.036-13.156t0-6.013l-0.036-0.984h6.706v2.916h-0.036q0.401-0.656 0.838-1.13t1.13-1.057 1.786-0.875 2.332-0.328q3.462 0 5.576 2.296t2.114 6.779z"></path>
</svg>
