<?xml version="1.0" encoding="utf-8"?>
<!-- Generated by IcoMoon.io -->
<!DOCTYPE svg PUBLIC "-//W3C//DTD SVG 1.1//EN" "http://www.w3.org/Graphics/SVG/1.1/DTD/svg11.dtd">
<svg version="1.1" xmlns="http://www.w3.org/2000/svg" xmlns:xlink="http://www.w3.org/1999/xlink" width="32" height="32" viewBox="0 0 32 32">
<path fill="#444" d="M32.438 5.951q-1.269 1.904-3.314 3.455v0.846q0 4.584-2.116 8.815t-6.558 7.157-10.225 2.926q-5.641 0-10.225-2.962 0.494 0.071 1.622 0.071 4.654 0 8.25-2.821-2.186-0.071-3.878-1.34t-2.327-3.314q0.353 0.141 1.199 0.141 0.917 0 1.763-0.212-2.327-0.494-3.808-2.327t-1.481-4.231v-0.071q1.269 0.705 2.962 0.846-2.962-2.045-2.962-5.571 0-1.692 0.917-3.314 5.43 6.629 13.751 6.911-0.212-0.635-0.212-1.481 0-2.75 1.939-4.689t4.76-1.939q2.891 0 4.795 2.045 2.116-0.423 4.231-1.551-0.705 2.327-2.891 3.667 1.974-0.282 3.808-1.058z"></path>
</svg>
